<?xml version="1.0" standalone="no"?>
<!DOCTYPE svg PUBLIC "-//W3C//DTD SVG 20010904//EN"
 "http://www.w3.org/TR/2001/REC-SVG-20010904/DTD/svg10.dtd">
<svg version="1.0" xmlns="http://www.w3.org/2000/svg"
 width="5000.000000pt" height="4000.000000pt" viewBox="0 0 5000.000000 4000.000000"
 preserveAspectRatio="xMidYMid meet">

<g transform="translate(0.000000,4000.000000) scale(0.100000,-0.100000)"
fill="#000000" stroke="none">
<path d="M17126 32333 c-207 -526 -338 -1090 -392 -1693 -18 -203 -24 -713
-11 -959 34 -644 177 -1376 412 -2111 230 -718 576 -1484 966 -2135 193 -324
200 -332 309 -393 1912 -1084 4118 -3008 6384 -5572 17 -19 64 -72 104 -116
39 -45 72 -86 72 -91 0 -17 -740 -637 -1214 -1018 -547 -440 -1154 -906 -1750
-1344 -106 -77 -127 -97 -123 -115 2 -11 30 -108 61 -214 74 -253 243 -873
351 -1287 47 -181 88 -339 91 -350 10 -39 -44 64 -270 510 -267 526 -528 1039
-532 1043 -1 2 -30 -16 -64 -39 -192 -131 -412 -129 -605 6 -161 113 -399 432
-543 727 -154 317 -190 622 -98 824 31 68 26 67 -89 -14 -92 -65 -283 -251
-342 -332 -158 -218 -233 -443 -233 -700 0 -210 54 -418 165 -640 132 -264
274 -455 535 -725 187 -192 274 -326 340 -523 42 -125 60 -245 60 -397 0 -280
-76 -516 -239 -742 l-59 -82 456 -449 457 -449 50 38 c321 249 767 326 1156
199 111 -37 245 -104 333 -168 38 -28 130 -111 205 -184 374 -365 759 -594
1125 -669 74 -15 137 -20 235 -20 192 1 314 26 469 97 215 98 462 319 595 531
15 24 27 45 27 47 0 2 -18 -4 -40 -15 -71 -35 -151 -49 -270 -50 -294 -2 -630
139 -1015 425 -307 228 -403 403 -351 638 17 74 68 195 106 248 l20 28 -447
227 c-959 487 -1131 575 -1122 575 3 0 111 -27 240 -61 527 -136 978 -258
1419 -385 123 -35 229 -64 235 -63 5 0 28 28 50 62 151 234 712 1016 1150
1602 282 377 494 655 665 874 292 371 364 461 370 461 8 0 356 -441 634 -803
472 -615 1064 -1426 1444 -1977 66 -96 128 -186 137 -198 21 -29 -4 -33 305
56 323 93 826 231 1234 336 180 47 338 88 350 92 52 16 -20 -24 -344 -188
-190 -97 -537 -273 -773 -393 l-427 -217 21 -29 c34 -49 88 -174 105 -246 19
-79 14 -194 -10 -261 -40 -111 -155 -239 -336 -375 -221 -165 -461 -300 -644
-362 -247 -84 -494 -90 -646 -16 -22 11 -40 17 -40 14 0 -2 27 -44 60 -93 157
-229 387 -417 623 -509 248 -97 537 -99 823 -5 286 93 655 336 939 618 192
191 344 290 542 355 279 91 607 79 870 -32 108 -46 193 -94 273 -155 l65 -49
457 449 456 449 -59 82 c-69 95 -158 271 -189 372 -34 114 -50 230 -50 370 0
152 18 272 60 397 66 197 153 331 340 523 157 162 210 223 309 357 198 269
333 557 375 803 20 116 20 310 0 415 -53 282 -223 551 -479 760 -73 59 -175
130 -187 130 -4 0 5 -25 18 -55 90 -196 58 -484 -88 -805 -97 -213 -316 -529
-467 -672 -208 -199 -465 -230 -685 -83 -37 25 -69 45 -71 43 -1 -2 -147 -289
-325 -638 -411 -810 -473 -930 -476 -927 -2 2 3 25 11 52 7 28 39 149 70 270
87 339 247 929 341 1255 46 162 83 299 80 305 -2 6 -96 78 -207 160 -343 252
-781 583 -1174 889 -298 232 -915 732 -1265 1027 -367 308 -441 373 -438 385
2 7 123 146 269 311 2254 2533 4405 4398 6324 5484 52 30 69 48 123 129 281
424 626 1095 857 1666 361 889 586 1791 662 2654 23 271 23 872 0 1130 -54
576 -167 1086 -352 1585 -35 94 -72 189 -83 213 l-19 43 -91 -169 c-236 -439
-636 -1118 -1017 -1722 -939 -1493 -2025 -3013 -3220 -4505 -379 -474 -498
-619 -1089 -1318 -38 -45 -94 -111 -126 -147 -31 -36 -174 -198 -316 -361
-352 -402 -401 -457 -784 -874 -792 -864 -1930 -2017 -2593 -2629 l-107 -99
-58 54 c-227 212 -745 713 -1048 1014 -603 600 -997 1012 -1723 1800 -86 93
-475 528 -657 735 -1995 2268 -3881 4840 -5284 7205 -156 263 -375 647 -482
848 -50 92 -91 167 -92 167 -1 0 -28 -66 -60 -147z m2239 -5838 c54 -32 6479
-6460 6471 -6473 -4 -6 -68 -66 -144 -133 -75 -67 -147 -131 -160 -143 l-23
-20 -3210 3209 c-2386 2386 -3217 3222 -3235 3257 -40 78 -30 167 27 240 16
20 29 41 29 46 0 8 39 28 90 46 29 11 116 -6 155 -29z m14538 10 c18 -8 37
-23 42 -34 6 -10 23 -37 40 -61 41 -59 47 -149 15 -213 -16 -32 -900 -922
-3236 -3258 l-3213 -3213 -23 20 c-215 191 -308 277 -308 282 0 4 1455 1461
3233 3239 3047 3046 3235 3233 3282 3247 56 17 120 14 168 -9z m-7210 -7323
l157 -157 -160 -160 -160 -160 -155 155 c-85 85 -155 159 -155 165 0 10 300
315 310 315 3 0 76 -71 163 -158z m-889 -891 c75 -89 136 -166 136 -170 0 -14
-1977 -1980 -2005 -1994 -72 -35 -154 -28 -224 19 -76 50 -113 191 -76 282 11
26 311 332 1018 1039 551 552 1004 999 1008 995 4 -4 68 -81 143 -171z m3616
-1857 c29 -59 26 -135 -8 -207 -56 -117 -185 -157 -297 -92 -22 13 -480 464
-1019 1003 -744 745 -976 983 -970 994 5 8 70 88 144 176 l135 162 998 -997
c673 -674 1004 -1011 1017 -1039z"/>
<path d="M18977 12412 c-713 -713 -1297 -1300 -1297 -1303 0 -4 203 -206 451
-450 l450 -443 1300 1300 1299 1299 -447 447 c-247 247 -450 448 -453 448 -3
0 -589 -584 -1303 -1298z"/>
<path d="M32328 13262 l-447 -448 1299 -1299 1299 -1299 450 443 c248 244 451
446 451 450 0 7 -2593 2601 -2600 2601 -3 0 -207 -202 -452 -448z"/>
<path d="M17469 10969 c-20 -11 -99 -44 -175 -73 -77 -29 -162 -65 -189 -79
-129 -65 -250 -186 -315 -317 -53 -105 -71 -174 -77 -300 -7 -141 14 -239 79
-370 37 -77 57 -100 212 -256 94 -94 191 -184 216 -201 129 -87 252 -124 410
-124 172 0 311 46 445 148 131 100 187 186 281 427 36 94 73 181 80 193 8 12
14 27 14 33 0 14 -921 940 -935 939 -5 0 -26 -9 -46 -20z"/>
<path d="M35072 10527 l-464 -464 67 -169 c36 -93 76 -191 88 -219 116 -261
371 -425 662 -426 130 0 216 20 335 78 89 45 104 57 281 233 172 171 189 191
228 270 55 114 81 220 81 334 0 223 -103 439 -273 574 -78 62 -128 87 -335
168 -92 36 -171 69 -176 75 -6 5 -15 9 -21 9 -5 0 -219 -209 -473 -463z"/>
</g>
</svg>
